<?xml version="1.0" encoding="utf-8"?>
<!-- Generator: Adobe Illustrator 24.2.3, SVG Export Plug-In . SVG Version: 6.00 Build 0)  -->
<svg version="1.1" id="Layer_1" xmlns="http://www.w3.org/2000/svg" xmlns:xlink="http://www.w3.org/1999/xlink" x="0px" y="0px"
	 viewBox="0 0 400 400" style="enable-background:new 0 0 400 400;" xml:space="preserve">
<style type="text/css">
	.st0{fill:#A7A9AC;}
</style>
<g>
	<path class="st0" d="M334.6,233.8c-3.6-1.8-7.2-3.5-10.7-5.2l1.3-2.7c3.6,1.7,7.2,3.4,10.8,5.2L334.6,233.8z M307.6,221.2
		c-3.6-1.6-7.3-3.2-11-4.7l1.1-2.8c3.7,1.5,7.4,3.1,11,4.7L307.6,221.2z M280,210c-3.7-1.4-7.5-2.8-11.2-4.1l1-2.8
		c3.7,1.3,7.5,2.7,11.3,4.2L280,210z M251.8,200c-3.8-1.2-7.6-2.4-11.4-3.6l0.9-2.9c3.8,1.2,7.7,2.4,11.5,3.6L251.8,200z
		 M223.1,191.5c-3.8-1-7.7-2.1-11.6-3l0.7-2.9c3.9,1,7.8,2,11.6,3L223.1,191.5z M194.1,184.3c-3.9-0.9-7.8-1.7-11.7-2.5l0.6-2.9
		c3.9,0.8,7.9,1.6,11.8,2.5L194.1,184.3z M164.8,178.6c-3.9-0.7-7.9-1.3-11.8-1.9l0.4-3c3.9,0.6,7.9,1.2,11.9,1.9L164.8,178.6z
		 M135.2,174.3c-3.9-0.5-7.9-0.9-11.9-1.3l0.3-3c4,0.4,8,0.8,11.9,1.3L135.2,174.3z M105.5,171.4c-4-0.3-8-0.5-11.9-0.7l0.2-3
		c4,0.2,8,0.5,12,0.8L105.5,171.4z M75.6,169.9c-4-0.1-8-0.2-11.9-0.2l0-3c4,0,8,0.1,12,0.2L75.6,169.9z"/>
</g>
</svg>
