<?xml version="1.0" encoding="utf-8"?>
<!-- Generator: Adobe Illustrator 24.2.3, SVG Export Plug-In . SVG Version: 6.00 Build 0)  -->
<svg version="1.1" id="Layer_1" xmlns="http://www.w3.org/2000/svg" xmlns:xlink="http://www.w3.org/1999/xlink" x="0px" y="0px"
	 viewBox="0 0 400 400" style="enable-background:new 0 0 400 400;" xml:space="preserve">
<style type="text/css">
	.st0{fill:#A7A9AC;}
</style>
<g>
	<path class="st0" d="M74.6,229.9c-4,0-8-0.1-12-0.2l0.1-3c3.9,0.1,8,0.2,12,0.2L74.6,229.9z M92.6,229.7l-0.1-3
		c4-0.1,8-0.2,11.9-0.4l0.1,3C100.7,229.5,96.6,229.6,92.6,229.7z M122.6,228.3l-0.2-3c4-0.3,8-0.6,11.9-1l0.3,3
		C130.7,227.7,126.6,228,122.6,228.3z M152.5,225.5l-0.4-3c3.9-0.5,7.9-1,11.9-1.5l0.4,3C160.5,224.5,156.5,225,152.5,225.5z
		 M182.2,221.2l-0.5-3c3.9-0.7,7.9-1.4,11.8-2.1l0.6,2.9C190.1,219.8,186.2,220.5,182.2,221.2z M211.7,215.4l-0.6-2.9
		c3.9-0.8,7.8-1.8,11.7-2.7l0.7,2.9C219.6,213.7,215.6,214.6,211.7,215.4z M240.9,208.3l-0.8-2.9c3.8-1,7.7-2.1,11.5-3.2l0.8,2.9
		C248.6,206.1,244.7,207.2,240.9,208.3z M269.7,199.7l-0.9-2.9c3.8-1.2,7.6-2.5,11.4-3.8l1,2.8C277.4,197.2,273.5,198.5,269.7,199.7
		z M298.1,189.7l-1.1-2.8c3.7-1.4,7.5-2.9,11.2-4.4l1.1,2.8C305.6,186.8,301.9,188.3,298.1,189.7z M326,178.3l-1.2-2.8
		c3.6-1.6,7.3-3.2,10.9-4.9l1.3,2.7C333.4,175.1,329.7,176.8,326,178.3z"/>
</g>
</svg>
